<svg width="21" height="20" viewBox="0 0 21 20" fill="none" xmlns="http://www.w3.org/2000/svg">
<g clip-path="url(#clip0_1_68)">
<path d="M10.5 7.50004C8.65833 7.50004 8 8.15837 8 10C8 11.8417 8.65825 12.5 10.4999 12.5C12.3416 12.5 13 11.8417 13 10C13 8.15837 12.3417 7.50004 10.5 7.50004ZM17.9499 9.16671C17.5666 5.69171 14.8083 2.93337 11.3333 2.55004V0.833374H9.66659V2.55004C6.19159 2.93337 3.43325 5.69171 3.04992 9.16671H1.33325V10.8334H3.04992C3.43325 14.3084 6.19159 17.0667 9.66659 17.45V19.1667H11.3333V17.45C14.8083 17.0667 17.5666 14.3084 17.9499 10.8334H19.6666V9.16671H17.9499ZM10.4999 15.8334C7.27492 15.8334 4.66659 13.225 4.66659 10C4.66659 6.77504 7.27492 4.16671 10.4999 4.16671C13.7249 4.16671 16.3333 6.77504 16.3333 10C16.3333 13.225 13.7249 15.8334 10.4999 15.8334Z" fill="#E5E5E5"/>
</g>
<defs>
<clipPath id="clip0_1_68">
<rect width="20" height="20" fill="white" transform="translate(0.5)"/>
</clipPath>
</defs>
</svg>
